# This file uses centimeters as units for non-parametric coordinates.

mtllib Barrel.mtl
g default
v 0.866025 0.002795 -0.500000
v 0.500000 0.002795 -0.866025
v 0.000000 0.002795 -1.000000
v -0.500000 0.002795 -0.866025
v -0.866025 0.002795 -0.500000
v -1.000000 0.002795 0.000000
v -0.866025 0.002795 0.500000
v -0.500000 0.002795 0.866025
v 0.000000 0.002795 1.000000
v 0.500000 0.002795 0.866025
v 0.866025 0.002795 0.500000
v 1.000000 0.002795 0.000000
v 0.866025 2.892119 -0.500000
v 0.500000 2.892119 -0.866025
v 0.000000 2.892119 -1.000000
v -0.500000 2.892119 -0.866025
v -0.866025 2.892119 -0.500000
v -1.000000 2.892119 0.000000
v -0.866025 2.892119 0.500000
v -0.500000 2.892119 0.866025
v 0.000000 2.892119 1.000000
v 0.500000 2.892119 0.866025
v 0.866025 2.892119 0.500000
v 1.000000 2.892119 0.000000
v 0.000000 0.002795 0.000000
v 0.000000 2.892119 0.000000
v -0.500000 2.140326 0.866025
v -0.866025 2.140326 0.500000
v -1.000000 2.140326 0.000000
v -0.866025 2.140326 -0.500000
v -0.500000 2.140326 -0.866025
v 0.000000 2.140326 -1.000000
v 0.500000 2.140326 -0.866025
v 0.866025 2.140326 -0.500000
v 1.000000 2.140326 0.000000
v 0.866025 2.140326 0.500000
v 0.500000 2.140326 0.866025
v 0.000000 2.140326 1.000000
v -0.500000 2.104410 0.866025
v -0.866025 2.104410 0.500000
v -1.000000 2.104410 0.000000
v -0.866025 2.104410 -0.500000
v -0.500000 2.104410 -0.866025
v 0.000000 2.104410 -1.000000
v 0.500000 2.104410 -0.866025
v 0.866025 2.104410 -0.500000
v 1.000000 2.104410 0.000000
v 0.866025 2.104410 0.500000
v 0.500000 2.104410 0.866025
v 0.000000 2.104410 1.000000
v 0.000000 0.842618 1.000000
v -0.500000 0.842618 0.866025
v -0.866025 0.842618 0.500000
v -1.000000 0.842618 0.000000
v -0.866025 0.842618 -0.500000
v -0.500000 0.842618 -0.866025
v 0.000000 0.842618 -1.000000
v 0.500000 0.842618 -0.866025
v 0.866025 0.842618 -0.500000
v 1.000000 0.842618 0.000000
v 0.866025 0.842618 0.500000
v 0.500000 0.842618 0.866025
v 0.000000 0.797559 1.000000
v -0.500000 0.797559 0.866025
v -0.866025 0.797559 0.500000
v -1.000000 0.797559 0.000000
v -0.866025 0.797559 -0.500000
v -0.500000 0.797559 -0.866025
v 0.000000 0.797559 -1.000000
v 0.500000 0.797559 -0.866025
v 0.866025 0.797559 -0.500000
v 1.000000 0.797559 0.000000
v 0.866025 0.797559 0.500000
v 0.500000 0.797559 0.866025
v -0.523209 2.104410 0.906224
v -0.906224 2.104410 0.523209
v -0.523209 2.140326 0.906224
v -0.906224 2.140326 0.523209
v -1.046417 2.104410 0.000000
v -1.046417 2.140326 0.000000
v -0.906224 2.104410 -0.523209
v -0.906224 2.140326 -0.523209
v -0.523209 2.104410 -0.906224
v -0.523209 2.140326 -0.906224
v 0.000000 2.104410 -1.046417
v 0.000000 2.140326 -1.046417
v 0.523209 2.104410 -0.906224
v 0.523209 2.140326 -0.906224
v 0.906224 2.104410 -0.523209
v 0.906224 2.140326 -0.523209
v 1.046417 2.104410 0.000000
v 1.046417 2.140326 0.000000
v 0.906224 2.104410 0.523209
v 0.906224 2.140326 0.523209
v 0.523209 2.104410 0.906224
v 0.523209 2.140326 0.906224
v 0.000000 2.104410 1.046417
v 0.000000 2.140326 1.046417
v 0.000000 0.797559 1.046417
v -0.523209 0.797559 0.906224
v 0.000000 0.842618 1.046417
v -0.523209 0.842618 0.906224
v -0.906224 0.797559 0.523209
v -0.906224 0.842618 0.523209
v -1.046417 0.797559 0.000000
v -1.046417 0.842618 0.000000
v -0.906224 0.797559 -0.523209
v -0.906224 0.842618 -0.523209
v -0.523209 0.797559 -0.906224
v -0.523209 0.842618 -0.906224
v 0.000000 0.797559 -1.046417
v 0.000000 0.842618 -1.046417
v 0.523209 0.797559 -0.906224
v 0.523209 0.842618 -0.906224
v 0.906224 0.797559 -0.523209
v 0.906224 0.842618 -0.523209
v 1.046417 0.797559 0.000000
v 1.046417 0.842618 0.000000
v 0.906224 0.797559 0.523209
v 0.906224 0.842618 0.523209
v 0.523209 0.797559 0.906224
v 0.523209 0.842618 0.906224
vt 0.957133 0.670130
vt 0.913411 0.626408
vt 0.853686 0.610405
vt 0.793962 0.626408
vt 0.750240 0.670130
vt 0.734237 0.729854
vt 0.750240 0.789579
vt 0.793962 0.833300
vt 0.853686 0.849303
vt 0.913411 0.833300
vt 0.957133 0.789579
vt 0.973136 0.729854
vt 0.108405 0.017738
vt 0.186717 0.017738
vt 0.186717 0.137909
vt 0.108405 0.137909
vt 0.265043 0.017738
vt 0.265043 0.137909
vt 0.343368 0.017738
vt 0.343368 0.137909
vt 0.421690 0.017738
vt 0.421690 0.137909
vt 0.500010 0.017738
vt 0.500010 0.137909
vt 0.578325 0.017738
vt 0.578325 0.137909
vt 0.656636 0.017738
vt 0.656636 0.137909
vt 0.734940 0.017738
vt 0.734940 0.137909
vt 0.813239 0.017738
vt 0.813239 0.137909
vt 0.891535 0.017738
vt 0.891535 0.137909
vt 0.970624 0.017738
vt 0.029211 0.137909
vt 0.577839 0.197652
vt 0.656807 0.197652
vt 0.959517 0.412316
vt 0.915298 0.368097
vt 0.854894 0.351912
vt 0.794490 0.368097
vt 0.750271 0.412316
vt 0.734086 0.472720
vt 0.750271 0.533123
vt 0.794490 0.577342
vt 0.854894 0.593528
vt 0.915298 0.577342
vt 0.959517 0.533123
vt 0.975702 0.472720
vt 0.853686 0.729854
vt 0.854894 0.472720
vt 0.656807 0.312428
vt 0.577839 0.312428
vt 0.498868 0.197652
vt 0.498868 0.312428
vt 0.419895 0.197652
vt 0.419895 0.312428
vt 0.340928 0.197652
vt 0.340928 0.312428
vt 0.261961 0.197652
vt 0.261961 0.312428
vt 0.182999 0.197652
vt 0.182999 0.312428
vt 0.104040 0.197652
vt 0.104040 0.312428
vt 0.973476 0.197652
vt 0.973476 0.312428
vt 0.893671 0.197652
vt 0.893671 0.312428
vt 0.814731 0.197652
vt 0.814731 0.312428
vt 0.248309 0.332637
vt 0.735772 0.197652
vt 0.735772 0.312428
vt 0.577839 0.185344
vt 0.656807 0.185344
vt 0.656807 0.190857
vt 0.577839 0.190857
vt 0.498868 0.185344
vt 0.498868 0.190857
vt 0.419895 0.185344
vt 0.419895 0.190857
vt 0.340928 0.185344
vt 0.340928 0.190857
vt 0.261961 0.185344
vt 0.261961 0.190857
vt 0.361753 0.332637
vt 0.182999 0.185344
vt 0.182999 0.190857
vt 0.104040 0.185344
vt 0.104040 0.190857
vt 0.973476 0.185344
vt 0.973476 0.190857
vt 0.893671 0.185344
vt 0.893671 0.190857
vt 0.814731 0.185344
vt 0.814731 0.190857
vt 0.735772 0.185344
vt 0.735772 0.190857
vt 0.656636 0.144667
vt 0.734940 0.144667
vt 0.734940 0.151519
vt 0.656636 0.151519
vt 0.578325 0.144667
vt 0.578325 0.151519
vt 0.500010 0.144667
vt 0.500010 0.151519
vt 0.421690 0.144667
vt 0.421690 0.151519
vt 0.343368 0.144667
vt 0.343368 0.151519
vt 0.265043 0.144667
vt 0.265043 0.151519
vt 0.186717 0.144667
vt 0.186717 0.151519
vt 0.108405 0.144667
vt 0.108405 0.151519
vt 0.970624 0.144667
vt 0.970624 0.151519
vt 0.891535 0.144667
vt 0.891535 0.151519
vt 0.813239 0.144667
vt 0.813239 0.151519
vt 0.577839 0.178479
vt 0.656807 0.178479
vt 0.498868 0.178479
vt 0.419895 0.178479
vt 0.340928 0.178479
vt 0.261961 0.178479
vt 0.182999 0.178479
vt 0.104040 0.178479
vt 0.024212 0.178479
vt 0.893671 0.178479
vt 0.814731 0.178479
vt 0.735772 0.178479
vt 0.734940 0.158297
vt 0.656636 0.158297
vt 0.578325 0.158297
vt 0.500010 0.158297
vt 0.421690 0.158297
vt 0.343368 0.158297
vt 0.265043 0.158297
vt 0.186717 0.158297
vt 0.108405 0.158297
vt 0.970624 0.158297
vt 0.891535 0.158297
vt 0.813239 0.158297
vt 0.475198 0.608448
vt 0.475198 0.332637
vt 0.588643 0.608448
vt 0.021419 0.628413
vt 0.702087 0.608448
vt 0.702087 0.332637
vt 0.588643 0.332637
vt 0.021419 0.608448
vt 0.361753 0.608448
vt 0.248309 0.608448
vt 0.134864 0.332637
vt 0.134864 0.608448
vt 0.702087 0.628413
vt 0.021419 0.905666
vt 0.702087 0.905666
vt 0.588643 0.628413
vt 0.588643 0.905666
vt 0.475198 0.628413
vt 0.475198 0.905666
vt 0.361753 0.628413
vt 0.361753 0.905666
vt 0.248309 0.628413
vt 0.248309 0.905666
vt 0.134864 0.628413
vt 0.134864 0.905666
vt 0.021419 0.332637
vt 0.029211 0.144667
vt 0.029211 0.151519
vt 0.029211 0.158297
vt 0.970624 0.137909
vt 0.024212 0.312428
vt 0.029211 0.017738
vt 0.024212 0.185344
vt 0.024212 0.190857
vt 0.024212 0.197652
vt 0.973476 0.178479
vn 0.707107 0.000000 -0.707107
vn 0.707107 0.000000 -0.707107
vn 0.707107 0.000000 -0.707107
vn 0.707107 0.000000 -0.707107
vn 0.258819 -0.000000 -0.965926
vn 0.258819 -0.000000 -0.965926
vn 0.258819 -0.000000 -0.965926
vn 0.258819 -0.000000 -0.965926
vn -0.258819 -0.000000 -0.965926
vn -0.258819 -0.000000 -0.965926
vn -0.258819 -0.000000 -0.965926
vn -0.258819 -0.000000 -0.965926
vn -0.707107 0.000000 -0.707107
vn -0.707107 0.000000 -0.707107
vn -0.707107 0.000000 -0.707107
vn -0.707107 0.000000 -0.707107
vn -0.965926 0.000000 -0.258819
vn -0.965926 0.000000 -0.258819
vn -0.965926 0.000000 -0.258819
vn -0.965926 0.000000 -0.258819
vn -0.965926 0.000000 0.258819
vn -0.965926 0.000000 0.258819
vn -0.965926 0.000000 0.258819
vn -0.965926 0.000000 0.258819
vn -0.707107 0.000000 0.707107
vn -0.707107 0.000000 0.707107
vn -0.707107 0.000000 0.707107
vn -0.707107 0.000000 0.707107
vn -0.258819 -0.000000 0.965926
vn -0.258819 -0.000000 0.965926
vn -0.258819 -0.000000 0.965926
vn -0.258819 -0.000000 0.965926
vn 0.258819 -0.000000 0.965926
vn 0.258819 -0.000000 0.965926
vn 0.258819 -0.000000 0.965926
vn 0.258819 -0.000000 0.965926
vn 0.707107 0.000000 0.707107
vn 0.707107 0.000000 0.707107
vn 0.707107 0.000000 0.707107
vn 0.707107 0.000000 0.707107
vn 0.965926 0.000000 0.258819
vn 0.965926 0.000000 0.258819
vn 0.965926 0.000000 0.258819
vn 0.965926 0.000000 0.258819
vn 0.965926 0.000000 -0.258819
vn 0.965926 0.000000 -0.258819
vn 0.965926 0.000000 -0.258819
vn 0.965926 0.000000 -0.258819
vn 0.000000 -1.000000 0.000000
vn 0.000000 -1.000000 0.000000
vn 0.000000 -1.000000 0.000000
vn 0.000000 -1.000000 0.000000
vn 0.000000 -1.000000 0.000000
vn 0.000000 -1.000000 0.000000
vn 0.000000 -1.000000 0.000000
vn 0.000000 -1.000000 0.000000
vn 0.000000 -1.000000 0.000000
vn 0.000000 -1.000000 0.000000
vn 0.000000 -1.000000 0.000000
vn 0.000000 -1.000000 0.000000
vn 0.000000 -1.000000 0.000000
vn 0.000000 1.000000 0.000000
vn 0.000000 1.000000 0.000000
vn 0.000000 1.000000 0.000000
vn 0.000000 1.000000 0.000000
vn 0.000000 1.000000 0.000000
vn 0.000000 1.000000 0.000000
vn 0.000000 1.000000 0.000000
vn 0.000000 1.000000 0.000000
vn 0.000000 1.000000 0.000000
vn 0.000000 1.000000 0.000000
vn 0.000000 1.000000 0.000000
vn 0.000000 1.000000 0.000000
vn 0.000000 1.000000 0.000000
vn -0.707107 0.000000 0.707107
vn -0.707107 0.000000 0.707107
vn -0.707107 0.000000 0.707107
vn -0.707107 0.000000 0.707107
vn -0.965926 0.000000 0.258819
vn -0.965926 0.000000 0.258819
vn -0.965926 0.000000 0.258819
vn -0.965926 0.000000 0.258819
vn -0.965926 0.000000 -0.258819
vn -0.965926 0.000000 -0.258819
vn -0.965926 0.000000 -0.258819
vn -0.965926 0.000000 -0.258819
vn -0.707107 0.000000 -0.707107
vn -0.707107 0.000000 -0.707107
vn -0.707107 0.000000 -0.707107
vn -0.707107 0.000000 -0.707107
vn -0.258819 0.000000 -0.965926
vn -0.258819 0.000000 -0.965926
vn -0.258819 0.000000 -0.965926
vn -0.258819 0.000000 -0.965926
vn 0.258819 0.000000 -0.965926
vn 0.258819 0.000000 -0.965926
vn 0.258819 0.000000 -0.965926
vn 0.258819 0.000000 -0.965926
vn 0.707107 0.000000 -0.707107
vn 0.707107 0.000000 -0.707107
vn 0.707107 0.000000 -0.707107
vn 0.707107 0.000000 -0.707107
vn 0.965926 0.000000 -0.258819
vn 0.965926 0.000000 -0.258819
vn 0.965926 0.000000 -0.258819
vn 0.965926 0.000000 -0.258819
vn 0.965926 0.000000 0.258819
vn 0.965926 0.000000 0.258819
vn 0.965926 0.000000 0.258819
vn 0.965926 0.000000 0.258819
vn 0.707107 0.000000 0.707107
vn 0.707107 0.000000 0.707107
vn 0.707107 0.000000 0.707107
vn 0.707107 0.000000 0.707107
vn 0.258819 0.000000 0.965926
vn 0.258819 0.000000 0.965926
vn 0.258819 0.000000 0.965926
vn 0.258819 0.000000 0.965926
vn -0.258819 0.000000 0.965926
vn -0.258819 0.000000 0.965926
vn -0.258819 0.000000 0.965926
vn -0.258819 0.000000 0.965926
vn -0.707106 0.000000 0.707107
vn -0.707106 0.000000 0.707107
vn -0.707106 0.000000 0.707107
vn -0.707106 0.000000 0.707107
vn -0.965926 0.000000 0.258819
vn -0.965926 0.000000 0.258819
vn -0.965926 0.000000 0.258819
vn -0.965926 0.000000 0.258819
vn -0.965926 0.000000 -0.258819
vn -0.965926 0.000000 -0.258819
vn -0.965926 0.000000 -0.258819
vn -0.965926 0.000000 -0.258819
vn -0.707106 0.000000 -0.707107
vn -0.707106 0.000000 -0.707107
vn -0.707106 0.000000 -0.707107
vn -0.707106 0.000000 -0.707107
vn -0.258819 0.000000 -0.965926
vn -0.258819 0.000000 -0.965926
vn -0.258819 0.000000 -0.965926
vn -0.258819 0.000000 -0.965926
vn 0.258819 0.000000 -0.965926
vn 0.258819 0.000000 -0.965926
vn 0.258819 0.000000 -0.965926
vn 0.258819 0.000000 -0.965926
vn 0.707106 0.000000 -0.707107
vn 0.707106 0.000000 -0.707107
vn 0.707106 0.000000 -0.707107
vn 0.707106 0.000000 -0.707107
vn 0.965926 0.000000 -0.258819
vn 0.965926 0.000000 -0.258819
vn 0.965926 0.000000 -0.258819
vn 0.965926 0.000000 -0.258819
vn 0.965926 0.000000 0.258819
vn 0.965926 0.000000 0.258819
vn 0.965926 0.000000 0.258819
vn 0.965926 0.000000 0.258819
vn 0.707106 0.000000 0.707107
vn 0.707106 0.000000 0.707107
vn 0.707106 0.000000 0.707107
vn 0.707106 0.000000 0.707107
vn 0.258819 0.000000 0.965926
vn 0.258819 0.000000 0.965926
vn 0.258819 0.000000 0.965926
vn 0.258819 0.000000 0.965926
vn -0.258819 0.000000 0.965926
vn -0.258819 0.000000 0.965926
vn -0.258819 0.000000 0.965926
vn -0.258819 0.000000 0.965926
vn -0.258819 0.000000 0.965926
vn -0.258819 0.000000 0.965926
vn -0.258819 0.000000 0.965926
vn -0.258819 0.000000 0.965926
vn -0.707107 0.000000 0.707107
vn -0.707107 0.000000 0.707107
vn -0.707107 0.000000 0.707107
vn -0.707107 0.000000 0.707107
vn -0.965926 0.000000 0.258819
vn -0.965926 0.000000 0.258819
vn -0.965926 0.000000 0.258819
vn -0.965926 0.000000 0.258819
vn -0.965926 0.000000 -0.258819
vn -0.965926 0.000000 -0.258819
vn -0.965926 0.000000 -0.258819
vn -0.965926 0.000000 -0.258819
vn -0.707107 0.000000 -0.707107
vn -0.707107 0.000000 -0.707107
vn -0.707107 0.000000 -0.707107
vn -0.707107 0.000000 -0.707107
vn -0.258819 0.000000 -0.965926
vn -0.258819 0.000000 -0.965926
vn -0.258819 0.000000 -0.965926
vn -0.258819 0.000000 -0.965926
vn 0.258819 0.000000 -0.965926
vn 0.258819 0.000000 -0.965926
vn 0.258819 0.000000 -0.965926
vn 0.258819 0.000000 -0.965926
vn 0.707107 0.000000 -0.707107
vn 0.707107 0.000000 -0.707107
vn 0.707107 0.000000 -0.707107
vn 0.707107 0.000000 -0.707107
vn 0.965926 0.000000 -0.258819
vn 0.965926 0.000000 -0.258819
vn 0.965926 0.000000 -0.258819
vn 0.965926 0.000000 -0.258819
vn 0.965926 0.000000 0.258819
vn 0.965926 0.000000 0.258819
vn 0.965926 0.000000 0.258819
vn 0.965926 0.000000 0.258819
vn 0.707107 0.000000 0.707107
vn 0.707107 0.000000 0.707107
vn 0.707107 0.000000 0.707107
vn 0.707107 0.000000 0.707107
vn 0.258819 0.000000 0.965926
vn 0.258819 0.000000 0.965926
vn 0.258819 0.000000 0.965926
vn 0.258819 0.000000 0.965926
vn -0.258819 0.000000 0.965926
vn -0.258819 0.000000 0.965926
vn -0.258819 0.000000 0.965926
vn -0.258819 0.000000 0.965926
vn -0.707107 0.000000 0.707107
vn -0.707107 0.000000 0.707107
vn -0.707107 0.000000 0.707107
vn -0.707107 0.000000 0.707107
vn -0.965926 0.000000 0.258819
vn -0.965926 0.000000 0.258819
vn -0.965926 0.000000 0.258819
vn -0.965926 0.000000 0.258819
vn -0.965926 0.000000 -0.258819
vn -0.965926 0.000000 -0.258819
vn -0.965926 0.000000 -0.258819
vn -0.965926 0.000000 -0.258819
vn -0.707107 0.000000 -0.707107
vn -0.707107 0.000000 -0.707107
vn -0.707107 0.000000 -0.707107
vn -0.707107 0.000000 -0.707107
vn -0.258819 0.000000 -0.965926
vn -0.258819 0.000000 -0.965926
vn -0.258819 0.000000 -0.965926
vn -0.258819 0.000000 -0.965926
vn 0.258819 0.000000 -0.965926
vn 0.258819 0.000000 -0.965926
vn 0.258819 0.000000 -0.965926
vn 0.258819 0.000000 -0.965926
vn 0.707107 0.000000 -0.707107
vn 0.707107 0.000000 -0.707107
vn 0.707107 0.000000 -0.707107
vn 0.707107 0.000000 -0.707107
vn 0.965926 0.000000 -0.258819
vn 0.965926 0.000000 -0.258819
vn 0.965926 0.000000 -0.258819
vn 0.965926 0.000000 -0.258819
vn 0.965926 0.000000 0.258819
vn 0.965926 0.000000 0.258819
vn 0.965926 0.000000 0.258819
vn 0.965926 0.000000 0.258819
vn 0.707107 0.000000 0.707107
vn 0.707107 0.000000 0.707107
vn 0.707107 0.000000 0.707107
vn 0.707107 0.000000 0.707107
vn 0.258819 0.000000 0.965926
vn 0.258819 0.000000 0.965926
vn 0.258819 0.000000 0.965926
vn 0.258819 0.000000 0.965926
vn 0.000000 -1.000000 -0.000000
vn 0.000000 -1.000000 -0.000000
vn 0.000000 -1.000000 -0.000000
vn 0.000000 -1.000000 0.000000
vn 0.000000 1.000000 -0.000000
vn 0.000000 1.000000 -0.000000
vn 0.000000 1.000000 -0.000000
vn 0.000000 1.000000 -0.000000
vn 0.000000 -1.000000 -0.000000
vn 0.000000 -1.000000 -0.000000
vn 0.000000 1.000000 -0.000000
vn 0.000000 1.000000 -0.000000
vn 0.000000 -1.000000 -0.000000
vn 0.000000 -1.000000 -0.000000
vn 0.000000 1.000000 0.000001
vn 0.000000 1.000000 0.000001
vn 0.000000 -1.000000 0.000000
vn 0.000000 -1.000000 0.000000
vn 0.000000 1.000000 0.000001
vn 0.000000 1.000000 0.000001
vn 0.000000 -1.000000 -0.000000
vn 0.000000 -1.000000 -0.000000
vn 0.000000 1.000000 0.000000
vn 0.000000 1.000000 0.000000
vn 0.000000 -1.000000 0.000000
vn 0.000000 -1.000000 0.000000
vn 0.000000 1.000000 0.000000
vn 0.000000 1.000000 0.000000
vn 0.000000 -1.000000 0.000000
vn 0.000000 -1.000000 -0.000000
vn 0.000000 1.000000 0.000000
vn 0.000000 1.000000 0.000000
vn 0.000000 -1.000000 0.000000
vn 0.000000 -1.000000 0.000000
vn 0.000000 1.000000 0.000000
vn 0.000000 1.000000 0.000000
vn 0.000000 -1.000000 0.000000
vn 0.000000 -1.000000 0.000000
vn 0.000000 1.000000 -0.000001
vn 0.000000 1.000000 -0.000001
vn 0.000000 -1.000000 -0.000000
vn 0.000000 -1.000000 -0.000000
vn 0.000000 1.000000 -0.000001
vn 0.000000 1.000000 -0.000001
vn 0.000000 -1.000000 0.000000
vn 0.000000 -1.000000 0.000000
vn 0.000000 1.000000 -0.000000
vn 0.000000 1.000000 -0.000000
vn 0.000000 -1.000000 -0.000000
vn 0.000000 -1.000000 -0.000000
vn 0.000000 -1.000000 -0.000000
vn 0.000000 -1.000000 -0.000000
vn 0.000000 1.000000 0.000000
vn 0.000000 1.000000 -0.000000
vn 0.000000 1.000000 -0.000000
vn 0.000000 1.000000 0.000000
vn 0.000000 -1.000000 -0.000000
vn 0.000000 -1.000000 -0.000000
vn 0.000000 1.000000 -0.000000
vn 0.000000 1.000000 -0.000000
vn 0.000000 -1.000000 -0.000000
vn 0.000000 -1.000000 -0.000000
vn 0.000000 1.000000 -0.000000
vn 0.000000 1.000000 -0.000000
vn 0.000000 -1.000000 0.000000
vn 0.000000 -1.000000 0.000000
vn 0.000000 1.000000 -0.000000
vn 0.000000 1.000000 -0.000000
vn 0.000000 -1.000000 0.000000
vn 0.000000 -1.000000 0.000000
vn 0.000000 1.000000 -0.000000
vn 0.000000 1.000000 -0.000000
vn 0.000000 -1.000000 0.000000
vn 0.000000 -1.000000 0.000000
vn 0.000000 1.000000 -0.000000
vn 0.000000 1.000000 -0.000000
vn 0.000000 -1.000000 0.000000
vn 0.000000 -1.000000 0.000000
vn 0.000000 1.000000 0.000000
vn 0.000000 1.000000 0.000000
vn 0.000000 -1.000000 0.000000
vn 0.000000 -1.000000 0.000000
vn 0.000000 1.000000 0.000000
vn 0.000000 1.000000 0.000000
vn 0.000000 -1.000000 0.000000
vn 0.000000 -1.000000 0.000000
vn 0.000000 1.000000 0.000000
vn 0.000000 1.000000 0.000000
vn 0.000000 -1.000000 -0.000000
vn 0.000000 -1.000000 -0.000000
vn 0.000000 1.000000 0.000000
vn 0.000000 1.000000 0.000000
vn 0.000000 -1.000000 -0.000000
vn 0.000000 -1.000000 -0.000000
vn 0.000000 1.000000 0.000000
vn 0.000000 1.000000 0.000000
s off
g pCylinder1
usemtl lambert1SG
f 1/13/1 2/14/2 70/15/3 71/16/4
f 2/14/5 3/17/6 69/18/7 70/15/8
f 3/17/9 4/19/10 68/20/11 69/18/12
f 4/19/13 5/21/14 67/22/15 68/20/16
f 5/21/17 6/23/18 66/24/19 67/22/20
f 6/23/21 7/25/22 65/26/23 66/24/24
f 7/25/25 8/27/26 64/28/27 65/26/28
f 8/27/29 9/29/30 63/30/31 64/28/32
f 9/29/33 10/31/34 74/32/35 63/30/36
f 10/31/37 11/33/38 73/34/39 74/32/40
f 11/33/41 12/35/42 72/178/43 73/34/44
f 12/180/45 1/13/46 71/16/47 72/36/48
s 1
f 2/2/49 1/1/50 25/51/51
f 3/3/52 2/2/49 25/51/51
f 4/4/53 3/3/52 25/51/51
f 5/5/54 4/4/53 25/51/51
f 6/6/55 5/5/54 25/51/51
f 7/7/56 6/6/55 25/51/51
f 8/8/57 7/7/56 25/51/51
f 9/9/58 8/8/57 25/51/51
f 10/10/59 9/9/58 25/51/51
f 11/11/60 10/10/59 25/51/51
f 12/12/61 11/11/60 25/51/51
f 1/1/50 12/12/61 25/51/51
s 2
f 13/49/62 14/48/63 26/52/64
f 14/48/63 15/47/65 26/52/64
f 15/47/65 16/46/66 26/52/64
f 16/46/66 17/45/67 26/52/64
f 17/45/67 18/44/68 26/52/64
f 18/44/68 19/43/69 26/52/64
f 19/43/69 20/42/70 26/52/64
f 20/42/70 21/41/71 26/52/64
f 21/41/71 22/40/72 26/52/64
f 22/40/72 23/39/73 26/52/64
f 23/39/73 24/50/74 26/52/64
f 24/50/74 13/49/62 26/52/64
s off
f 28/37/75 27/38/76 20/53/77 19/54/78
f 29/55/79 28/37/80 19/54/81 18/56/82
f 30/57/83 29/55/84 18/56/85 17/58/86
f 31/59/87 30/57/88 17/58/89 16/60/90
f 32/61/91 31/59/92 16/60/93 15/62/94
f 33/63/95 32/61/96 15/62/97 14/64/98
f 34/65/99 33/63/100 14/64/101 13/66/102
f 35/183/103 34/65/104 13/66/105 24/179/106
f 36/69/107 35/67/108 24/68/109 23/70/110
f 37/71/111 36/69/112 23/70/113 22/72/114
f 38/74/115 37/71/116 22/72/117 21/75/118
f 27/38/119 38/74/120 21/75/121 20/53/122
f 76/76/123 75/77/124 77/78/125 78/79/126
f 79/80/127 76/76/128 78/79/129 80/81/130
f 81/82/131 79/80/132 80/81/133 82/83/134
f 83/84/135 81/82/136 82/83/137 84/85/138
f 85/86/139 83/84/140 84/85/141 86/87/142
f 87/89/143 85/86/144 86/87/145 88/90/146
f 89/91/147 87/89/148 88/90/149 90/92/150
f 91/181/151 89/91/152 90/92/153 92/182/154
f 93/95/155 91/93/156 92/94/157 94/96/158
f 95/97/159 93/95/160 94/96/161 96/98/162
f 97/99/163 95/97/164 96/98/165 98/100/166
f 75/77/167 97/99/168 98/100/169 77/78/170
f 52/73/171 51/88/172 50/157/173 39/158/174
f 53/159/175 52/73/176 39/158/177 40/160/178
f 54/174/179 53/159/180 40/160/181 41/156/182
f 55/164/183 54/161/184 41/163/185 42/165/186
f 56/166/187 55/164/188 42/165/189 43/167/190
f 57/168/191 56/166/192 43/167/193 44/169/194
f 58/170/195 57/168/196 44/169/197 45/171/198
f 59/172/199 58/170/200 45/171/201 46/173/202
f 60/152/203 59/172/204 46/173/205 47/162/206
f 61/155/207 60/154/208 47/153/209 48/151/210
f 62/150/211 61/155/212 48/151/213 49/149/214
f 51/88/215 62/150/216 49/149/217 50/157/218
f 100/101/219 99/102/220 101/103/221 102/104/222
f 103/105/223 100/101/224 102/104/225 104/106/226
f 105/107/227 103/105/228 104/106/229 106/108/230
f 107/109/231 105/107/232 106/108/233 108/110/234
f 109/111/235 107/109/236 108/110/237 110/112/238
f 111/113/239 109/111/240 110/112/241 112/114/242
f 113/115/243 111/113/244 112/114/245 114/116/246
f 115/117/247 113/115/248 114/116/249 116/118/250
f 117/175/251 115/117/252 116/118/253 118/176/254
f 119/121/255 117/119/256 118/120/257 120/122/258
f 121/123/259 119/121/260 120/122/261 122/124/262
f 99/102/263 121/123/264 122/124/265 101/103/266
s 3
f 40/125/267 39/126/268 75/77/269 76/76/270
s 4
f 27/38/271 28/37/272 78/79/273 77/78/274
s 3
f 41/127/275 40/125/267 76/76/270 79/80/276
s 4
f 28/37/272 29/55/277 80/81/278 78/79/273
s 3
f 42/128/279 41/127/275 79/80/276 81/82/280
s 4
f 29/55/277 30/57/281 82/83/282 80/81/278
s 3
f 43/129/283 42/128/279 81/82/280 83/84/284
s 4
f 30/57/281 31/59/285 84/85/286 82/83/282
s 3
f 44/130/287 43/129/283 83/84/284 85/86/288
s 4
f 31/59/285 32/61/289 86/87/290 84/85/286
s 3
f 45/131/291 44/130/287 85/86/288 87/89/292
s 4
f 32/61/289 33/63/293 88/90/294 86/87/290
s 3
f 46/132/295 45/131/291 87/89/292 89/91/296
s 4
f 33/63/293 34/65/297 90/92/298 88/90/294
s 3
f 47/133/299 46/132/295 89/91/296 91/181/300
s 4
f 34/65/297 35/183/301 92/182/302 90/92/298
s 3
f 48/134/303 47/184/299 91/93/300 93/95/304
s 4
f 35/67/301 36/69/305 94/96/306 92/94/302
s 3
f 49/135/307 48/134/303 93/95/304 95/97/308
s 4
f 36/69/305 37/71/309 96/98/310 94/96/306
s 3
f 50/136/311 49/135/307 95/97/308 97/99/312
s 4
f 37/71/309 38/74/313 98/100/314 96/98/310
s 3
f 39/126/268 50/136/311 97/99/312 75/77/269
s 4
f 38/74/313 27/38/271 77/78/274 98/100/314
s 5
f 64/28/315 63/30/316 99/102/317 100/101/318
s 6
f 51/137/319 52/138/320 102/104/321 101/103/322
s 5
f 65/26/323 64/28/315 100/101/318 103/105/324
s 6
f 52/138/320 53/139/325 104/106/326 102/104/321
s 5
f 66/24/327 65/26/323 103/105/324 105/107/328
s 6
f 53/139/325 54/140/329 106/108/330 104/106/326
s 5
f 67/22/331 66/24/327 105/107/328 107/109/332
s 6
f 54/140/329 55/141/333 108/110/334 106/108/330
s 5
f 68/20/335 67/22/331 107/109/332 109/111/336
s 6
f 55/141/333 56/142/337 110/112/338 108/110/334
s 5
f 69/18/339 68/20/335 109/111/336 111/113/340
s 6
f 56/142/337 57/143/341 112/114/342 110/112/338
s 5
f 70/15/343 69/18/339 111/113/340 113/115/344
s 6
f 57/143/341 58/144/345 114/116/346 112/114/342
s 5
f 71/16/347 70/15/343 113/115/344 115/117/348
s 6
f 58/144/345 59/145/349 116/118/350 114/116/346
s 5
f 72/36/351 71/16/347 115/117/348 117/175/352
s 6
f 59/145/349 60/177/353 118/176/354 116/118/350
s 5
f 73/34/355 72/178/351 117/119/352 119/121/356
s 6
f 60/146/353 61/147/357 120/122/358 118/120/354
s 5
f 74/32/359 73/34/355 119/121/356 121/123/360
s 6
f 61/147/357 62/148/361 122/124/362 120/122/358
s 5
f 63/30/316 74/32/359 121/123/360 99/102/317
s 6
f 62/148/361 51/137/319 101/103/322 122/124/362
