# This file uses centimeters as units for non-parametric coordinates.

mtllib Pillow.mtl
g default
v -0.354322 -0.087498 0.174362
v 0.354322 -0.087521 0.174446
v -0.354322 0.087498 0.174362
v 0.354322 0.087521 0.174446
v -0.354322 0.087498 -0.174362
v 0.354322 0.087521 -0.174446
v -0.309115 -0.087498 -0.174362
v 0.309115 -0.087521 -0.174446
v -0.307008 0.118122 0.000000
v 0.478335 0.000000 -0.235502
v 0.000000 -0.118122 -0.206807
v -0.478335 0.000000 -0.235388
v 0.234692 -0.118154 0.000000
v -0.234692 -0.118122 0.000000
v 0.000000 -0.118122 0.206807
v 0.478335 0.000000 0.235502
v 0.000000 0.118122 0.206807
v -0.478335 0.000000 0.235388
v 0.307008 0.118154 0.000000
v 0.000000 0.118122 -0.206807
v 0.000000 0.000000 0.275742
v 0.000000 0.157496 0.000000
v 0.000000 0.000000 -0.275742
v 0.000000 -0.157496 0.000000
v 0.394137 0.000000 0.000000
v -0.394137 0.000000 0.000000
vt 0.371515 0.646723
vt 0.371515 0.935422
vt 0.443690 0.646723
vt 0.443690 0.935422
vt 0.362493 0.727919
vt 0.452712 0.727919
vt 0.371515 0.791072
vt 0.299340 0.718897
vt 0.443690 0.791072
vt 0.515865 0.718897
vt 0.371515 0.863247
vt 0.299340 0.646723
vt 0.443690 0.863247
vt 0.515865 0.646723
vt 0.407602 0.682810
vt 0.407602 0.754985
vt 0.407602 0.827160
vt 0.407602 0.899335
vt 0.479777 0.682810
vt 0.335427 0.682810
vt 0.407602 0.646723
vt 0.407602 0.935422
vt 0.443690 0.682810
vt 0.407602 0.718897
vt 0.371515 0.682810
vt 0.443690 0.754985
vt 0.479777 0.718897
vt 0.407602 0.791072
vt 0.371515 0.754985
vt 0.335427 0.718897
vt 0.443690 0.827160
vt 0.515865 0.682810
vt 0.407602 0.863247
vt 0.371515 0.827160
vt 0.299340 0.682810
vt 0.443690 0.899335
vt 0.479777 0.646723
vt 0.371515 0.899335
vt 0.335427 0.646723
vn -0.311165 -0.864275 0.395228
vn -0.000074 -0.862033 0.506852
vn -0.000119 0.000000 1.000000
vn -0.657282 -0.084503 0.748892
vn 0.311141 -0.864296 0.395201
vn 0.657340 -0.084527 0.748839
vn 0.285053 0.851475 0.440154
vn -0.000069 0.866758 0.498728
vn -0.285082 0.851456 0.440172
vn -0.000040 1.000000 -0.000000
vn -0.268638 0.963241 -0.000000
vn 0.268659 0.963236 0.000000
vn 0.285053 0.851475 -0.440154
vn -0.000069 0.866758 -0.498728
vn -0.285082 0.851456 -0.440172
vn -0.000123 0.007987 -0.999968
vn -0.698565 -0.112849 -0.706592
vn 0.698640 -0.112889 -0.706512
vn 0.282511 -0.870125 -0.403820
vn -0.000078 -0.859774 -0.510676
vn -0.282548 -0.870110 -0.403826
vn -0.000046 -1.000000 0.000003
vn -0.248393 -0.968659 -0.000923
vn 0.248397 -0.968658 -0.000922
vn 0.971640 -0.234274 -0.032108
vn -0.971624 -0.234338 -0.032123
s 1
g pCube3
usemtl lambert2SG
f 1/1/1 15/21/2 21/15/3 18/25/4
f 15/21/2 2/3/5 16/23/6 21/15/3
f 21/15/3 16/23/6 4/6/7 17/24/8
f 18/25/4 21/15/3 17/24/8 3/5/9
f 3/5/9 17/24/8 22/16/10 9/29/11
f 17/24/8 4/6/7 19/26/12 22/16/10
f 22/16/10 19/26/12 6/9/13 20/28/14
f 9/29/11 22/16/10 20/28/14 5/7/15
f 5/7/15 20/28/14 23/17/16 12/34/17
f 20/28/14 6/9/13 10/31/18 23/17/16
f 23/17/16 10/31/18 8/13/19 11/33/20
f 12/34/17 23/17/16 11/33/20 7/11/21
f 7/11/21 11/33/20 24/18/22 14/38/23
f 11/33/20 8/13/19 13/36/24 24/18/22
f 24/18/22 13/36/24 2/4/5 15/22/2
f 14/38/23 24/18/22 15/22/2 1/2/1
f 2/3/5 13/37/24 25/19/25 16/23/6
f 13/37/24 8/14/19 10/32/18 25/19/25
f 25/19/25 10/32/18 6/10/13 19/27/12
f 16/23/6 25/19/25 19/27/12 4/6/7
f 7/12/21 14/39/23 26/20/26 12/35/17
f 14/39/23 1/1/1 18/25/4 26/20/26
f 26/20/26 18/25/4 3/5/9 9/30/11
f 12/35/17 26/20/26 9/30/11 5/8/15
