# This file uses centimeters as units for non-parametric coordinates.

mtllib Sandwich.mtl
g default
v 0.142959 0.377937 0.134860
v 0.170077 0.329044 0.137771
v 0.083888 0.346615 0.159053
v 0.111005 0.297722 0.161964
v 0.156228 0.397798 0.156399
v 0.142600 0.302789 0.141179
v 0.084422 0.314649 0.155543
v 0.105991 0.368794 0.137248
v 0.113090 0.289507 0.192990
v 0.076481 0.355512 0.189059
v 0.192837 0.331792 0.160329
v 0.164169 0.356934 0.122883
v 0.120841 0.333171 0.127386
v 0.081494 0.315462 0.196468
v 0.159064 0.299649 0.177315
v 0.110252 0.387656 0.172074
v 0.171402 0.385333 0.154728
v 0.190561 0.349972 0.156966
v 0.175962 0.364367 0.137859
v 0.179957 0.344349 0.161309
v 0.177219 0.366220 0.157264
v 0.165358 0.358744 0.142202
v 0.160798 0.379710 0.159071
v 0.158312 0.389583 0.187424
v 0.185430 0.340690 0.190336
v 0.099240 0.358260 0.211617
v 0.126358 0.309367 0.214529
v 0.163326 0.318510 0.212141
v 0.105148 0.330370 0.226506
v 0.126717 0.384516 0.208210
v 0.184895 0.372656 0.193845
v 0.148476 0.354133 0.222002
v 0.186355 0.372250 0.173442
v 0.175751 0.366628 0.177785
v -0.408543 0.133167 0.540237
v 0.537465 0.133167 0.456827
v -0.408543 0.158495 0.540237
v 0.537465 0.158495 0.456827
v 0.454055 0.158495 -0.489181
v 0.454055 0.133167 -0.489181
v 0.137183 0.271199 0.176766
v 0.129298 0.271199 0.176766
v 0.137183 0.432933 0.176766
v 0.129298 0.432933 0.176766
v 0.137183 0.432933 0.184651
v 0.129298 0.432933 0.184651
v 0.137183 0.271199 0.184651
v 0.129298 0.271199 0.184651
v -0.376528 0.162254 0.499733
v 0.496961 0.162254 0.424812
v -0.376528 0.172900 0.499733
v 0.496961 0.172900 0.424812
v 0.422041 0.172900 -0.448677
v 0.422041 0.162254 -0.448677
v -0.435570 0.102394 0.447351
v 0.440942 0.102394 0.465328
v -0.435570 0.128337 0.447351
v 0.440942 0.128337 0.465328
v 0.458920 0.128337 -0.411184
v 0.458920 0.102394 -0.411184
v -0.500000 0.100786 0.500000
v 0.500000 0.100786 0.500000
v 0.500000 0.100786 -0.500000
v -0.452732 0.006240 0.452732
v -0.500000 0.053508 0.500000
v 0.500000 0.053508 0.500000
v 0.452732 0.006240 0.452732
v 0.452732 0.006240 -0.452732
v 0.500000 0.053508 -0.500000
v -0.424489 0.122316 0.454795
v 0.452024 0.122316 0.472773
v -0.424489 0.148258 0.454795
v 0.452024 0.148258 0.472773
v 0.470001 0.148258 -0.403740
v 0.470001 0.122316 -0.403740
v -0.500000 0.173476 0.500000
v 0.500000 0.173476 0.500000
v 0.500000 0.173476 -0.500000
v -0.452732 0.268022 0.452732
v -0.500000 0.220754 0.500000
v 0.452732 0.268022 0.452732
v 0.500000 0.220754 0.500000
v 0.452732 0.268022 -0.452732
v 0.500000 0.220754 -0.500000
vt 0.794770 0.764652
vt 0.730343 0.745362
vt 0.794819 0.713547
vt 0.931145 0.676809
vt 0.873718 0.712291
vt 0.795596 0.682928
vt 0.795406 0.638863
vt 0.876721 0.618203
vt 0.795147 0.523022
vt 0.887463 0.521297
vt 0.714063 0.618427
vt 0.702783 0.521725
vt 0.714026 0.424855
vt 0.794806 0.411524
vt 0.875658 0.424430
vt 0.794493 0.307509
vt 0.924944 0.362083
vt 0.664359 0.362813
vt 0.598678 0.520243
vt 0.659982 0.677422
vt 0.991530 0.519180
vt 0.714271 0.710861
vt 0.856231 0.746253
vt 0.794770 0.764652
vt 0.794819 0.713547
vt 0.730343 0.745362
vt 0.931145 0.676809
vt 0.876721 0.618203
vt 0.795406 0.638863
vt 0.795596 0.682928
vt 0.873718 0.712291
vt 0.887463 0.521297
vt 0.795147 0.523022
vt 0.702783 0.521725
vt 0.714063 0.618427
vt 0.794806 0.411524
vt 0.714026 0.424855
vt 0.875658 0.424430
vt 0.924944 0.362083
vt 0.794493 0.307509
vt 0.664359 0.362813
vt 0.598678 0.520243
vt 0.659982 0.677422
vt 0.991530 0.519180
vt 0.714271 0.710861
vt 0.856231 0.746253
vt 0.023988 0.874752
vt 0.469242 0.496476
vt 0.420465 0.495475
vt 0.049740 0.812788
vt 0.049740 0.185444
vt 0.037690 0.072897
vt 0.127077 0.163222
vt 0.127077 0.072897
vt 0.023988 0.128176
vt 0.962825 0.922292
vt 0.973875 0.922292
vt 0.973875 0.933343
vt 0.962825 0.933343
vt 0.973875 0.944393
vt 0.962825 0.944393
vt 0.973875 0.955443
vt 0.962825 0.955443
vt 0.973875 0.966493
vt 0.962825 0.966493
vt 0.984925 0.922292
vt 0.984925 0.933343
vt 0.951775 0.922292
vt 0.951775 0.933343
vt 0.872189 0.016901
vt 0.486627 0.470731
vt 0.485608 0.421014
vt 0.809032 0.043149
vt 0.169605 0.043149
vt 0.191839 0.166261
vt 0.278551 0.252072
vt 0.191839 0.252072
vt 0.111234 0.016901
vt 0.970449 0.268997
vt 0.824670 0.145147
vt 0.840640 0.144819
vt 0.962018 0.248710
vt 0.962018 0.043313
vt 0.950099 0.029274
vt 0.926859 0.052758
vt 0.926859 0.029274
vt 0.970449 0.024563
vt 0.169451 0.907531
vt 0.492444 0.530169
vt 0.808026 0.907531
vt 0.606879 0.980633
vt 0.385000 0.980563
vt 0.385095 0.973191
vt 0.606839 0.973130
vt 0.352020 0.971842
vt 0.352020 0.960359
vt 0.174625 0.960359
vt 0.174625 0.971842
vt 0.015450 0.960359
vt 0.015450 0.971842
vt 0.174625 0.984408
vt 0.351860 0.984393
vt 0.931164 0.897806
vt 0.931164 0.976314
vt 0.851832 0.897806
vt 0.015450 0.984408
vt 0.395490 0.965821
vt 0.596146 0.965647
vt 0.970449 0.268997
vt 0.824670 0.145147
vt 0.840640 0.144819
vt 0.962018 0.248710
vt 0.962018 0.043313
vt 0.950099 0.029274
vt 0.926859 0.052758
vt 0.926859 0.029274
vt 0.970449 0.024563
vt 0.935306 0.980413
vt 0.847690 0.893708
vt 0.935306 0.893708
vt 0.607051 0.973139
vt 0.596413 0.965615
vt 0.395079 0.965792
vt 0.384828 0.973203
vt 0.352017 0.960360
vt 0.352017 0.971842
vt 0.174625 0.971842
vt 0.174625 0.960360
vt 0.015450 0.971842
vt 0.015450 0.960360
vt 0.351860 0.984393
vt 0.174625 0.984408
vt 0.199635 0.907531
vt 0.492094 0.565844
vt 0.777842 0.907531
vt 0.015450 0.984408
vt 0.384912 0.980597
vt 0.606999 0.980665
vn 0.835793 0.431357 -0.339679
vn -0.048026 0.978071 -0.202658
vn 0.623012 0.382630 0.682239
vn 0.115710 0.962097 -0.246944
vn 0.633633 0.695347 -0.339119
vn 0.704716 0.359626 -0.611592
vn 0.281699 0.100528 -0.954222
vn -0.101702 0.618990 -0.778787
vn -0.274229 -0.208008 -0.938899
vn -0.536412 0.470443 -0.700675
vn 0.507926 -0.483077 -0.713195
vn 0.148593 -0.764611 -0.627129
vn -0.266604 -0.882170 -0.388199
vn -0.741942 -0.441552 -0.504533
vn -0.868279 0.202642 -0.452799
vn -0.830772 -0.440515 0.340241
vn -0.903545 0.390001 0.177500
vn -0.158568 -0.953182 0.257487
vn 0.484372 -0.873315 0.052006
vn 0.886886 -0.432167 -0.163292
vn -0.484372 0.873315 -0.052006
vn 0.941610 0.140269 -0.306096
vn 0.806006 -0.582263 -0.106416
vn 0.134342 0.011964 -0.990863
vn 0.244011 0.881220 0.404858
vn 0.719235 0.432408 0.543806
vn 0.872635 0.486994 -0.036677
vn -0.148594 0.764611 0.627128
vn 0.274229 0.208008 0.938899
vn 0.536411 -0.470443 0.700676
vn 0.853901 -0.220649 0.471347
vn -0.320170 -0.121630 0.939520
vn 0.074037 -0.623787 0.778080
vn -0.527639 0.461025 0.713480
vn 0.087829 0.000000 0.996136
vn 0.087829 0.000000 0.996136
vn 0.087829 0.000000 0.996136
vn 0.087829 0.000000 0.996136
vn 0.000000 1.000000 0.000000
vn 0.000000 1.000000 0.000000
vn 0.000000 1.000000 0.000000
vn 0.000000 -1.000000 0.000000
vn 0.000000 -1.000000 0.000000
vn 0.000000 -1.000000 0.000000
vn 0.996136 0.000000 -0.087829
vn 0.996136 0.000000 -0.087829
vn 0.996136 0.000000 -0.087829
vn 0.996136 0.000000 -0.087829
vn -0.766479 0.000000 -0.642269
vn -0.766479 0.000000 -0.642269
vn -0.766479 0.000000 -0.642269
vn -0.766479 0.000000 -0.642269
vn 0.000000 0.000000 -1.000000
vn 0.000000 0.000000 -1.000000
vn 0.000000 0.000000 -1.000000
vn 0.000000 0.000000 -1.000000
vn 0.000000 1.000000 0.000000
vn 0.000000 1.000000 0.000000
vn 0.000000 1.000000 0.000000
vn 0.000000 1.000000 0.000000
vn 0.000000 0.000000 1.000000
vn 0.000000 0.000000 1.000000
vn 0.000000 0.000000 1.000000
vn 0.000000 0.000000 1.000000
vn 0.000000 -1.000000 0.000000
vn 0.000000 -1.000000 0.000000
vn 0.000000 -1.000000 0.000000
vn 0.000000 -1.000000 0.000000
vn -1.000000 0.000000 0.000000
vn -1.000000 0.000000 0.000000
vn -1.000000 0.000000 0.000000
vn -1.000000 0.000000 0.000000
vn 1.000000 0.000000 0.000000
vn 1.000000 0.000000 0.000000
vn 1.000000 0.000000 0.000000
vn 1.000000 0.000000 0.000000
vn 0.085458 0.000000 0.996342
vn 0.085458 0.000000 0.996342
vn 0.085458 0.000000 0.996342
vn 0.085458 0.000000 0.996342
vn 0.000000 1.000000 -0.000000
vn 0.000000 1.000000 -0.000000
vn 0.000000 1.000000 -0.000000
vn 0.000000 -1.000000 0.000000
vn 0.000000 -1.000000 0.000000
vn 0.000000 -1.000000 0.000000
vn 0.996342 0.000000 -0.085458
vn 0.996342 0.000000 -0.085458
vn 0.996342 0.000000 -0.085458
vn 0.996342 0.000000 -0.085458
vn -0.764948 0.000000 -0.644092
vn -0.764948 0.000000 -0.644092
vn -0.764948 0.000000 -0.644092
vn -0.764948 0.000000 -0.644092
vn -0.020506 0.000000 0.999790
vn -0.020506 0.000000 0.999790
vn -0.020506 0.000000 0.999790
vn -0.020506 0.000000 0.999790
vn 0.000000 1.000000 0.000000
vn 0.000000 1.000000 0.000000
vn 0.000000 1.000000 0.000000
vn 0.000000 -1.000000 0.000000
vn 0.000000 -1.000000 0.000000
vn 0.000000 -1.000000 0.000000
vn 0.999790 0.000000 0.020506
vn 0.999790 0.000000 0.020506
vn 0.999790 0.000000 0.020506
vn 0.999790 0.000000 0.020506
vn -0.692458 0.000000 -0.721458
vn -0.692458 0.000000 -0.721458
vn -0.692458 0.000000 -0.721458
vn -0.692458 0.000000 -0.721458
vn 0.000000 1.000000 -0.000000
vn 0.000000 1.000000 -0.000000
vn 0.000000 1.000000 -0.000000
vn -0.707107 0.000000 -0.707107
vn -0.707107 0.000000 -0.707107
vn -0.707107 0.000000 -0.707107
vn -0.707107 0.000000 -0.707107
vn 0.000000 -0.707106 0.707107
vn 0.000000 -0.707106 0.707107
vn 0.000000 -0.707106 0.707107
vn 0.000000 -0.707106 0.707107
vn 0.707107 -0.707106 0.000000
vn 0.707107 -0.707106 0.000000
vn 0.707107 -0.707106 0.000000
vn 0.707107 -0.707106 0.000000
vn 0.000000 0.000000 1.000000
vn 0.000000 0.000000 1.000000
vn 0.000000 0.000000 1.000000
vn 0.000000 0.000000 1.000000
vn 0.000000 -1.000000 0.000000
vn 0.000000 -1.000000 0.000000
vn 0.000000 -1.000000 0.000000
vn 1.000000 0.000000 0.000000
vn 1.000000 0.000000 0.000000
vn 1.000000 0.000000 0.000000
vn 1.000000 0.000000 0.000000
vn -0.707107 0.000000 -0.707107
vn -0.707107 0.000000 -0.707107
vn -0.020506 0.000000 0.999790
vn -0.020506 0.000000 0.999790
vn -0.020506 0.000000 0.999790
vn -0.020506 0.000000 0.999790
vn 0.000000 1.000000 0.000000
vn 0.000000 1.000000 0.000000
vn 0.000000 1.000000 0.000000
vn 0.000000 -1.000000 0.000000
vn 0.000000 -1.000000 0.000000
vn 0.000000 -1.000000 0.000000
vn 0.999790 0.000000 0.020506
vn 0.999790 0.000000 0.020506
vn 0.999790 0.000000 0.020506
vn 0.999790 0.000000 0.020506
vn -0.692458 0.000000 -0.721458
vn -0.692458 0.000000 -0.721458
vn -0.692458 0.000000 -0.721458
vn -0.692458 0.000000 -0.721458
vn 0.000000 -1.000000 0.000000
vn 0.000000 -1.000000 0.000000
vn 0.000000 -1.000000 0.000000
vn -0.707107 0.000000 -0.707107
vn -0.707107 0.000000 -0.707107
vn -0.707107 0.000000 -0.707107
vn -0.707107 0.000000 -0.707107
vn -0.000000 0.707106 0.707107
vn -0.000000 0.707106 0.707107
vn -0.000000 0.707106 0.707107
vn -0.000000 0.707106 0.707107
vn 0.707107 0.707107 -0.000000
vn 0.707107 0.707107 -0.000000
vn 0.707107 0.707107 -0.000000
vn 0.707107 0.707107 -0.000000
vn 0.000000 0.000000 1.000000
vn 0.000000 0.000000 1.000000
vn 0.000000 0.000000 1.000000
vn 0.000000 0.000000 1.000000
vn -0.000000 1.000000 -0.000000
vn -0.000000 1.000000 -0.000000
vn -0.000000 1.000000 -0.000000
vn 1.000000 0.000000 0.000000
vn 1.000000 0.000000 0.000000
vn 1.000000 0.000000 0.000000
vn 1.000000 0.000000 0.000000
vn -0.707107 0.000000 -0.707107
vn -0.707107 0.000000 -0.707107
s 1
g Sandwich
usemtl lambert1SG
f 21/1/1 20/2/2 22/3/3
f 5/4/4 17/5/5 19/6/6 12/7/7 1/8/8
f 1/8/8 12/7/7 13/9/9 8/10/10
f 12/7/7 2/11/11 6/12/12 13/9/9
f 13/9/9 6/12/12 4/13/13 7/14/14
f 8/10/10 13/9/9 7/14/14 3/15/15
f 3/15/15 7/14/14 14/16/16 10/17/17
f 7/14/14 4/13/13 9/18/18 14/16/16
f 9/18/18 4/13/13 6/12/12 15/19/19
f 15/19/19 6/12/12 2/11/11 11/20/20
f 3/15/15 10/17/17 16/21/21 8/10/10
f 8/10/10 16/21/21 5/4/4 1/8/8
f 19/6/6 18/22/22 11/20/20 2/11/11 12/7/7
f 22/3/3 23/23/23 21/1/1
f 18/22/22 19/6/6 22/3/3 20/2/2
f 19/6/6 17/5/5 23/23/23 22/3/3
f 21/24/1 34/25/24 20/26/2
f 5/27/4 24/28/25 31/29/26 33/30/27 17/31/5
f 24/28/25 30/32/28 32/33/29 31/29/26
f 31/29/26 32/33/29 28/34/30 25/35/31
f 32/33/29 29/36/32 27/37/33 28/34/30
f 30/32/28 26/38/34 29/36/32 32/33/29
f 26/38/34 10/39/17 14/40/16 29/36/32
f 29/36/32 14/40/16 9/41/18 27/37/33
f 9/41/18 15/42/19 28/34/30 27/37/33
f 15/42/19 11/43/20 25/35/31 28/34/30
f 26/38/34 30/32/28 16/44/21 10/39/17
f 30/32/28 24/28/25 5/27/4 16/44/21
f 33/30/27 31/29/26 25/35/31 11/43/20 18/45/22
f 34/25/24 21/24/1 23/46/23
f 18/45/22 20/26/2 34/25/24 33/30/27
f 33/30/27 34/25/24 23/46/23 17/31/5
s off
f 35/47/35 36/48/36 38/49/37 37/50/38
f 37/50/39 38/49/40 39/51/41
f 35/52/42 40/53/43 36/54/44
f 36/48/45 40/55/46 39/51/47 38/49/48
f 37/50/49 39/51/50 40/55/51 35/47/52
f 41/56/53 42/57/54 44/58/55 43/59/56
f 43/59/57 44/58/58 46/60/59 45/61/60
f 45/61/61 46/60/62 48/62/63 47/63/64
f 47/63/65 48/62/66 42/64/67 41/65/68
f 42/57/69 48/66/70 46/67/71 44/58/72
f 47/68/73 41/56/74 43/59/75 45/69/76
f 49/70/77 50/71/78 52/72/79 51/73/80
f 51/73/81 52/72/82 53/74/83
f 49/75/84 54/76/85 50/77/86
f 50/71/87 54/78/88 53/74/89 52/72/90
f 51/73/91 53/74/92 54/78/93 49/70/94
f 55/79/95 56/80/96 58/81/97 57/82/98
f 57/82/99 58/81/100 59/83/101
f 55/84/102 60/85/103 56/86/104
f 56/80/105 60/87/106 59/83/107 58/81/108
f 57/82/109 59/83/110 60/87/111 55/79/112
f 61/88/113 62/89/114 63/90/115
s 3
f 61/91/116 63/92/117 69/93/118 65/94/119
s off
f 65/95/120 64/96/121 67/97/122 66/98/123
f 66/98/124 67/97/125 68/99/126 69/100/127
f 65/95/128 66/98/129 62/101/130 61/102/131
f 67/103/132 64/104/133 68/105/134
f 66/98/135 69/100/136 63/106/137 62/101/138
s 3
f 65/94/119 69/93/118 68/107/139 64/108/140
s off
f 70/109/141 71/110/142 73/111/143 72/112/144
f 72/112/145 73/111/146 74/113/147
f 70/114/148 75/115/149 71/116/150
f 71/110/151 75/117/152 74/113/153 73/111/154
f 72/112/155 74/113/156 75/117/157 70/109/158
f 76/118/159 78/119/160 77/120/161
s 4
f 80/121/162 79/122/163 83/123/164 84/124/165
s off
f 79/125/166 80/126/167 82/127/168 81/128/169
f 81/128/170 82/127/171 84/129/172 83/130/173
f 76/131/174 77/132/175 82/127/176 80/126/177
f 79/133/178 81/134/179 83/135/180
f 77/132/181 78/136/182 84/129/183 82/127/184
s 4
f 80/121/162 84/124/165 78/137/185 76/138/186
